<svg width="100" height="100" viewBox="0 0 100 100" fill="none" xmlns="http://www.w3.org/2000/svg">
<g clip-path="url(#clip0_2278_33927)">
<circle cx="50" cy="50" r="50" fill="#006937"/>
<mask id="mask0_2278_33927" style="mask-type:alpha" maskUnits="userSpaceOnUse" x="-61" y="-47" width="244" height="217">
<path d="M19.8173 3.02011C19.465 2.66746 18.9889 2.47683 18.4842 2.47683C17.9795 2.47683 17.5033 2.66746 17.151 3.02011L16.5225 3.63011L15.275 2.40058L15.9035 1.79058C16.6368 1.06621 16.6368 -0.106134 15.9035 -0.820977C15.1703 -1.54535 13.9704 -1.54535 13.2372 -0.820977C12.5039 -0.096603 12.5039 1.07574 13.2372 1.79058L13.8657 2.40058L12.6182 3.63011L11.9897 3.02011C11.2565 2.29574 10.0566 2.29574 9.32337 3.02011C8.59013 3.74448 8.59013 4.91683 9.32337 5.63167C9.69476 5.99386 10.1709 6.17495 10.6565 6.17495C11.1422 6.17495 11.6183 5.99386 11.9897 5.63167L12.6182 5.02167L13.8657 6.2512L13.2372 6.8612C12.8848 7.21385 12.6849 7.67136 12.6849 8.16698C12.6849 8.66261 12.8848 9.12963 13.2372 9.47276C13.6086 9.83495 14.0847 10.016 14.5704 10.016C15.056 10.016 15.5321 9.83495 15.9035 9.47276C16.2749 9.11057 16.4558 8.66261 16.4558 8.16698C16.4558 7.67136 16.2559 7.20432 15.9035 6.8612L15.275 6.2512L16.5225 5.02167L17.151 5.63167C17.5224 5.99386 17.9985 6.17495 18.4842 6.17495C18.9698 6.17495 19.446 5.99386 19.8173 5.63167C20.5506 4.9073 20.5506 3.73495 19.8173 3.02011ZM13.9419 1.0948C13.599 0.751676 13.599 0.208394 13.9419 -0.134731C14.1133 -0.306293 14.3418 -0.392071 14.5704 -0.392071C14.7989 -0.392071 15.0274 -0.306293 15.1989 -0.134731C15.5417 0.208394 15.5417 0.751676 15.1989 1.0948L14.5704 1.7048L13.9419 1.0948ZM11.2755 4.93589C10.9327 5.27902 10.3709 5.27902 10.028 4.93589C9.68523 4.59277 9.68523 4.04949 10.028 3.70636C10.1995 3.5348 10.428 3.44902 10.6565 3.44902C10.8851 3.44902 11.1136 3.5348 11.285 3.70636L11.9135 4.31636L11.285 4.92636L11.2755 4.93589ZM15.1989 7.54745C15.3703 7.70948 15.456 7.9287 15.456 8.15745C15.456 8.3862 15.3607 8.60542 15.1989 8.76745C14.856 9.11057 14.2942 9.11057 13.9514 8.76745C13.78 8.60542 13.6943 8.3862 13.6943 8.15745C13.6943 7.9287 13.7895 7.70948 13.9514 7.54745L14.5799 6.93745L15.2084 7.54745H15.1989ZM14.5704 5.54589L13.3229 4.31636L14.5704 3.08683L15.8178 4.31636L14.5704 5.54589ZM19.1127 4.93589C18.7699 5.27902 18.208 5.27902 17.8652 4.93589L17.2367 4.32589L17.8652 3.71589C18.0366 3.55386 18.2556 3.45855 18.4937 3.45855C18.7318 3.45855 18.9508 3.54433 19.1222 3.71589C19.465 4.05902 19.465 4.6023 19.1222 4.94542L19.1127 4.93589Z" fill="#FFB321"/>
<path d="M43.0341 3.02011C42.6818 2.66746 42.2057 2.47683 41.701 2.47683C41.1963 2.47683 40.7201 2.66746 40.3678 3.02011L39.7393 3.63011L38.4918 2.40058L39.1203 1.79058C39.8536 1.06621 39.8536 -0.106134 39.1203 -0.820977C38.3871 -1.54535 37.1872 -1.54535 36.454 -0.820977C35.7207 -0.096603 35.7207 1.07574 36.454 1.79058L37.0825 2.40058L35.835 3.63011L35.2065 3.02011C34.4733 2.29574 33.2734 2.29574 32.5402 3.02011C31.8069 3.74448 31.8069 4.91683 32.5402 5.63167C32.9116 5.99386 33.3877 6.17495 33.8733 6.17495C34.359 6.17495 34.8351 5.99386 35.2065 5.63167L35.835 5.02167L37.0825 6.2512L36.454 6.8612C36.1016 7.21385 35.9017 7.67136 35.9017 8.16698C35.9017 8.66261 36.1016 9.12963 36.454 9.47276C36.8254 9.83495 37.3015 10.016 37.7872 10.016C38.2728 10.016 38.7489 9.83495 39.1203 9.47276C39.4727 9.1201 39.6726 8.66261 39.6726 8.16698C39.6726 7.67136 39.4727 7.20432 39.1203 6.8612L38.4918 6.2512L39.7393 5.02167L40.3678 5.63167C40.7392 5.99386 41.2153 6.17495 41.701 6.17495C42.1866 6.17495 42.6628 5.99386 43.0341 5.63167C43.7674 4.9073 43.7674 3.73495 43.0341 3.02011ZM37.1587 1.0948C36.8158 0.751676 36.8158 0.208394 37.1587 -0.134731C37.3301 -0.306293 37.5586 -0.392071 37.7872 -0.392071C38.0157 -0.392071 38.2442 -0.306293 38.4156 -0.134731C38.7585 0.208394 38.7585 0.751676 38.4156 1.0948L37.7872 1.7048L37.1587 1.0948ZM34.4923 4.93589C34.1495 5.27902 33.5877 5.27902 33.2448 4.93589C32.902 4.59277 32.902 4.04949 33.2448 3.70636C33.4163 3.5348 33.6448 3.44902 33.8733 3.44902C34.1019 3.44902 34.3304 3.5348 34.5018 3.70636L35.1303 4.31636L34.5018 4.92636L34.4923 4.93589ZM38.4156 7.54745C38.5871 7.70948 38.6728 7.9287 38.6728 8.15745C38.6728 8.3862 38.5775 8.60542 38.4156 8.76745C38.0728 9.11057 37.511 9.11057 37.1682 8.76745C36.9968 8.60542 36.9111 8.3862 36.9111 8.15745C36.9111 7.9287 37.0063 7.70948 37.1682 7.54745L37.7967 6.93745L38.4252 7.54745H38.4156ZM37.7872 5.54589L36.5397 4.31636L37.7872 3.08683L39.0346 4.31636L37.7872 5.54589ZM42.3295 4.93589C41.9866 5.27902 41.4248 5.27902 41.082 4.93589L40.4535 4.32589L41.082 3.71589C41.2534 3.55386 41.4724 3.45855 41.7105 3.45855C41.9486 3.45855 42.1676 3.54433 42.339 3.71589C42.6818 4.05902 42.6818 4.6023 42.339 4.94542L42.3295 4.93589Z" fill="#FFB321"/>
<path d="M66.248 3.02011C65.8957 2.66746 65.4195 2.47683 64.9148 2.47683C64.4101 2.47683 63.934 2.66746 63.5817 3.02011L62.9532 3.63011L61.7057 2.40058L62.3342 1.79058C63.0674 1.06621 63.0674 -0.106134 62.3342 -0.820977C61.6009 -1.54535 60.4011 -1.54535 59.6679 -0.820977C58.9346 -0.096603 58.9346 1.07574 59.6679 1.79058L60.2963 2.40058L59.0489 3.63011L58.4204 3.02011C57.6871 2.29574 56.4873 2.29574 55.754 3.02011C55.0208 3.74448 55.0208 4.91683 55.754 5.63167C56.1254 5.99386 56.6016 6.17495 57.0872 6.17495C57.5729 6.17495 58.049 5.99386 58.4204 5.63167L59.0489 5.02167L60.2963 6.2512L59.6679 6.8612C59.3155 7.21385 59.1155 7.67136 59.1155 8.16698C59.1155 8.66261 59.3155 9.12963 59.6679 9.47276C60.0392 9.83495 60.5154 10.016 61.001 10.016C61.4867 10.016 61.9628 9.83495 62.3342 9.47276C62.7056 9.11057 62.8865 8.66261 62.8865 8.16698C62.8865 7.67136 62.6865 7.20432 62.3342 6.8612L61.7057 6.2512L62.9532 5.02167L63.5817 5.63167C63.9531 5.99386 64.4292 6.17495 64.9148 6.17495C65.4005 6.17495 65.8766 5.99386 66.248 5.63167C66.9813 4.9073 66.9813 3.73495 66.248 3.02011ZM60.3725 1.0948C60.0297 0.751676 60.0297 0.208394 60.3725 -0.134731C60.5439 -0.306293 60.7725 -0.392071 61.001 -0.392071C61.2296 -0.392071 61.4581 -0.306293 61.6295 -0.134731C61.9723 0.208394 61.9723 0.751676 61.6295 1.0948L61.001 1.7048L60.3725 1.0948ZM57.7062 4.93589C57.3634 5.27902 56.8015 5.27902 56.4587 4.93589C56.1159 4.59277 56.1159 4.04949 56.4587 3.70636C56.6301 3.5348 56.8587 3.44902 57.0872 3.44902C57.3158 3.44902 57.5443 3.5348 57.7157 3.70636L58.3442 4.31636L57.7157 4.92636L57.7062 4.93589ZM61.6295 7.54745C61.8009 7.70948 61.8866 7.9287 61.8866 8.15745C61.8866 8.3862 61.7914 8.60542 61.6295 8.76745C61.2867 9.11057 60.7249 9.11057 60.382 8.76745C60.2106 8.60542 60.1249 8.3862 60.1249 8.15745C60.1249 7.9287 60.2202 7.70948 60.382 7.54745L61.0105 6.93745L61.639 7.54745H61.6295ZM61.001 5.54589L59.7536 4.31636L61.001 3.08683L62.2485 4.31636L61.001 5.54589ZM65.5433 4.93589C65.2005 5.27902 64.6387 5.27902 64.2959 4.93589L63.6674 4.32589L64.2959 3.71589C64.4673 3.55386 64.6863 3.45855 64.9244 3.45855C65.1624 3.45855 65.3814 3.54433 65.5529 3.71589C65.8957 4.05902 65.8957 4.6023 65.5529 4.94542L65.5433 4.93589Z" fill="#FFB321"/>
<path d="M89.4648 3.02011C89.1125 2.66746 88.6363 2.47683 88.1316 2.47683C87.6269 2.47683 87.1508 2.66746 86.7985 3.02011L86.17 3.63011L84.9225 2.40058L85.551 1.79058C86.2842 1.06621 86.2842 -0.106134 85.551 -0.820977C84.8177 -1.54535 83.6179 -1.54535 82.8846 -0.820977C82.1514 -0.096603 82.1514 1.07574 82.8846 1.79058L83.5131 2.40058L82.2657 3.63011L81.6372 3.02011C80.9039 2.29574 79.7041 2.29574 78.9708 3.02011C78.2376 3.74448 78.2376 4.91683 78.9708 5.63167C79.3422 5.99386 79.8184 6.17495 80.304 6.17495C80.7897 6.17495 81.2658 5.99386 81.6372 5.63167L82.2657 5.02167L83.5131 6.2512L82.8846 6.8612C82.5323 7.21385 82.3323 7.67136 82.3323 8.16698C82.3323 8.66261 82.5323 9.12963 82.8846 9.47276C83.256 9.83495 83.7322 10.016 84.2178 10.016C84.7035 10.016 85.1796 9.83495 85.551 9.47276C85.9224 9.11057 86.1033 8.66261 86.1033 8.16698C86.1033 7.67136 85.9033 7.20432 85.551 6.8612L84.9225 6.2512L86.17 5.02167L86.7985 5.63167C87.1698 5.99386 87.646 6.17495 88.1316 6.17495C88.6173 6.17495 89.0934 5.99386 89.4648 5.63167C90.1981 4.9073 90.1981 3.73495 89.4648 3.02011ZM83.5893 1.0948C83.2465 0.751676 83.2465 0.208394 83.5893 -0.134731C83.7607 -0.306293 83.9893 -0.392071 84.2178 -0.392071C84.4464 -0.392071 84.6749 -0.306293 84.8463 -0.134731C85.1891 0.208394 85.1891 0.751676 84.8463 1.0948L84.2178 1.7048L83.5893 1.0948ZM80.923 4.93589C80.5802 5.27902 80.0183 5.27902 79.6755 4.93589C79.3327 4.59277 79.3327 4.04949 79.6755 3.70636C79.8469 3.5348 80.0755 3.44902 80.304 3.44902C80.5326 3.44902 80.7611 3.5348 80.9325 3.70636L81.561 4.31636L80.9325 4.92636L80.923 4.93589ZM84.8463 7.54745C85.0177 7.70948 85.1034 7.9287 85.1034 8.15745C85.1034 8.3862 85.0082 8.60542 84.8463 8.76745C84.5035 9.11057 83.9417 9.11057 83.5988 8.76745C83.4274 8.60542 83.3417 8.3862 83.3417 8.15745C83.3417 7.9287 83.437 7.70948 83.5988 7.54745L84.2273 6.93745L84.8558 7.54745H84.8463ZM84.2178 5.54589L82.9704 4.31636L84.2178 3.08683L85.4653 4.31636L84.2178 5.54589ZM88.7601 4.93589C88.4173 5.27902 87.8555 5.27902 87.5127 4.93589L86.8842 4.32589L87.5127 3.71589C87.6841 3.55386 87.9031 3.45855 88.1412 3.45855C88.3792 3.45855 88.5983 3.54433 88.7697 3.71589C89.1125 4.05902 89.1125 4.6023 88.7697 4.94542L88.7601 4.93589Z" fill="#FFB321"/>
<path d="M19.8173 25.8375C19.465 25.4848 18.9889 25.2942 18.4842 25.2942C17.9795 25.2942 17.5033 25.4848 17.151 25.8375L16.5225 26.4475L15.275 25.218L15.9035 24.608C16.6368 23.8836 16.6368 22.7112 15.9035 21.9964C15.1703 21.272 13.9704 21.272 13.2372 21.9964C12.5039 22.7208 12.5039 23.8931 13.2372 24.608L13.8657 25.218L12.6182 26.4475L11.9897 25.8375C11.2565 25.1131 10.0566 25.1131 9.32337 25.8375C8.59013 26.5619 8.59013 27.7342 9.32337 28.4491C9.69476 28.8112 10.1709 28.9923 10.6565 28.9923C11.1422 28.9923 11.6183 28.8112 11.9897 28.4491L12.6182 27.8391L13.8657 29.0686L13.2372 29.6786C12.8848 30.0312 12.6849 30.4887 12.6849 30.9844C12.6849 31.48 12.8848 31.947 13.2372 32.2901C13.6086 32.6523 14.0847 32.8334 14.5704 32.8334C15.056 32.8334 15.5321 32.6523 15.9035 32.2901C16.2749 31.928 16.4558 31.48 16.4558 30.9844C16.4558 30.4887 16.2559 30.0217 15.9035 29.6786L15.275 29.0686L16.5225 27.8391L17.151 28.4491C17.5224 28.8112 17.9985 28.9923 18.4842 28.9923C18.9698 28.9923 19.446 28.8112 19.8173 28.4491C20.5506 27.7247 20.5506 26.5523 19.8173 25.8375ZM13.9419 23.9122C13.599 23.5691 13.599 23.0258 13.9419 22.6827C14.1133 22.5111 14.3418 22.4253 14.5704 22.4253C14.7989 22.4253 15.0274 22.5111 15.1989 22.6827C15.5417 23.0258 15.5417 23.5691 15.1989 23.9122L14.5704 24.5222L13.9419 23.9122ZM11.2755 27.7533C10.9327 28.0964 10.3709 28.0964 10.028 27.7533C9.68523 27.4102 9.68523 26.8669 10.028 26.5237C10.1995 26.3522 10.428 26.2664 10.6565 26.2664C10.8851 26.2664 11.1136 26.3522 11.285 26.5237L11.9135 27.1337L11.285 27.7437L11.2755 27.7533ZM15.1989 30.3648C15.3703 30.5269 15.456 30.7461 15.456 30.9748C15.456 31.2036 15.3607 31.4228 15.1989 31.5848C14.856 31.928 14.2942 31.928 13.9514 31.5848C13.78 31.4228 13.6943 31.2036 13.6943 30.9748C13.6943 30.7461 13.7895 30.5269 13.9514 30.3648L14.5799 29.7548L15.2084 30.3648H15.1989ZM14.5704 28.3633L13.3229 27.1337L14.5704 25.9042L15.8178 27.1337L14.5704 28.3633ZM19.1127 27.7533C18.7699 28.0964 18.208 28.0964 17.8652 27.7533L17.2367 27.1433L17.8652 26.5333C18.0366 26.3712 18.2556 26.2759 18.4937 26.2759C18.7318 26.2759 18.9508 26.3617 19.1222 26.5333C19.465 26.8764 19.465 27.4197 19.1222 27.7628L19.1127 27.7533Z" fill="#FFB321"/>
<path d="M43.0341 25.8375C42.6818 25.4848 42.2057 25.2942 41.701 25.2942C41.1963 25.2942 40.7201 25.4848 40.3678 25.8375L39.7393 26.4475L38.4918 25.218L39.1203 24.608C39.8536 23.8836 39.8536 22.7112 39.1203 21.9964C38.3871 21.272 37.1872 21.272 36.454 21.9964C35.7207 22.7208 35.7207 23.8931 36.454 24.608L37.0825 25.218L35.835 26.4475L35.2065 25.8375C34.4733 25.1131 33.2734 25.1131 32.5402 25.8375C31.8069 26.5619 31.8069 27.7342 32.5402 28.4491C32.9116 28.8112 33.3877 28.9923 33.8733 28.9923C34.359 28.9923 34.8351 28.8112 35.2065 28.4491L35.835 27.8391L37.0825 29.0686L36.454 29.6786C36.1016 30.0312 35.9017 30.4887 35.9017 30.9844C35.9017 31.48 36.1016 31.947 36.454 32.2901C36.8254 32.6523 37.3015 32.8334 37.7872 32.8334C38.2728 32.8334 38.7489 32.6523 39.1203 32.2901C39.4917 31.928 39.6726 31.48 39.6726 30.9844C39.6726 30.4887 39.4727 30.0217 39.1203 29.6786L38.4918 29.0686L39.7393 27.8391L40.3678 28.4491C40.7392 28.8112 41.2153 28.9923 41.701 28.9923C42.1866 28.9923 42.6628 28.8112 43.0341 28.4491C43.7674 27.7247 43.7674 26.5523 43.0341 25.8375ZM37.1587 23.9122C36.8158 23.5691 36.8158 23.0258 37.1587 22.6827C37.3301 22.5111 37.5586 22.4253 37.7872 22.4253C38.0157 22.4253 38.2442 22.5111 38.4156 22.6827C38.7585 23.0258 38.7585 23.5691 38.4156 23.9122L37.7872 24.5222L37.1587 23.9122ZM34.4923 27.7533C34.1495 28.0964 33.5877 28.0964 33.2448 27.7533C32.902 27.4102 32.902 26.8669 33.2448 26.5237C33.4163 26.3522 33.6448 26.2664 33.8733 26.2664C34.1019 26.2664 34.3304 26.3522 34.5018 26.5237L35.1303 27.1337L34.5018 27.7437L34.4923 27.7533ZM38.4156 30.3648C38.5871 30.5269 38.6728 30.7461 38.6728 30.9748C38.6728 31.2036 38.5775 31.4228 38.4156 31.5848C38.0728 31.928 37.511 31.928 37.1682 31.5848C36.9968 31.4228 36.9111 31.2036 36.9111 30.9748C36.9111 30.7461 37.0063 30.5269 37.1682 30.3648L37.7967 29.7548L38.4252 30.3648H38.4156ZM37.7872 28.3633L36.5397 27.1337L37.7872 25.9042L39.0346 27.1337L37.7872 28.3633ZM42.3295 27.7533C41.9866 28.0964 41.4248 28.0964 41.082 27.7533L40.4535 27.1433L41.082 26.5333C41.2534 26.3712 41.4724 26.2759 41.7105 26.2759C41.9486 26.2759 42.1676 26.3617 42.339 26.5333C42.6818 26.8764 42.6818 27.4197 42.339 27.7628L42.3295 27.7533Z" fill="#FFB321"/>
<path d="M66.248 25.8375C65.8957 25.4848 65.4195 25.2942 64.9148 25.2942C64.4101 25.2942 63.934 25.4848 63.5817 25.8375L62.9532 26.4475L61.7057 25.218L62.3342 24.608C63.0674 23.8836 63.0674 22.7112 62.3342 21.9964C61.6009 21.272 60.4011 21.272 59.6679 21.9964C58.9346 22.7208 58.9346 23.8931 59.6679 24.608L60.2963 25.218L59.0489 26.4475L58.4204 25.8375C57.6871 25.1131 56.4873 25.1131 55.754 25.8375C55.0208 26.5619 55.0208 27.7342 55.754 28.4491C56.1254 28.8112 56.6016 28.9923 57.0872 28.9923C57.5729 28.9923 58.049 28.8112 58.4204 28.4491L59.0489 27.8391L60.2963 29.0686L59.6679 29.6786C59.3155 30.0312 59.1155 30.4887 59.1155 30.9844C59.1155 31.48 59.3155 31.947 59.6679 32.2901C60.0392 32.6523 60.5154 32.8334 61.001 32.8334C61.4867 32.8334 61.9628 32.6523 62.3342 32.2901C62.7056 31.928 62.8865 31.48 62.8865 30.9844C62.8865 30.4887 62.6865 30.0217 62.3342 29.6786L61.7057 29.0686L62.9532 27.8391L63.5817 28.4491C63.9531 28.8112 64.4292 28.9923 64.9148 28.9923C65.4005 28.9923 65.8766 28.8112 66.248 28.4491C66.9813 27.7247 66.9813 26.5523 66.248 25.8375ZM60.3725 23.9122C60.0297 23.5691 60.0297 23.0258 60.3725 22.6827C60.5439 22.5111 60.7725 22.4253 61.001 22.4253C61.2296 22.4253 61.4581 22.5111 61.6295 22.6827C61.9723 23.0258 61.9723 23.5691 61.6295 23.9122L61.001 24.5222L60.3725 23.9122ZM57.7062 27.7533C57.3634 28.0964 56.8015 28.0964 56.4587 27.7533C56.1159 27.4102 56.1159 26.8669 56.4587 26.5237C56.6301 26.3522 56.8587 26.2664 57.0872 26.2664C57.3158 26.2664 57.5443 26.3522 57.7157 26.5237L58.3442 27.1337L57.7157 27.7437L57.7062 27.7533ZM61.6295 30.3648C61.8009 30.5269 61.8866 30.7461 61.8866 30.9748C61.8866 31.2036 61.7914 31.4228 61.6295 31.5848C61.2867 31.928 60.7249 31.928 60.382 31.5848C60.2106 31.4228 60.1249 31.2036 60.1249 30.9748C60.1249 30.7461 60.2202 30.5269 60.382 30.3648L61.0105 29.7548L61.639 30.3648H61.6295ZM61.001 28.3633L59.7536 27.1337L61.001 25.9042L62.2485 27.1337L61.001 28.3633ZM65.5433 27.7533C65.2005 28.0964 64.6387 28.0964 64.2959 27.7533L63.6674 27.1433L64.2959 26.5333C64.4673 26.3712 64.6863 26.2759 64.9244 26.2759C65.1624 26.2759 65.3814 26.3617 65.5529 26.5333C65.8957 26.8764 65.8957 27.4197 65.5529 27.7628L65.5433 27.7533Z" fill="#FFB321"/>
<path d="M89.4648 25.8375C89.1125 25.4848 88.6363 25.2942 88.1316 25.2942C87.6269 25.2942 87.1508 25.4848 86.7985 25.8375L86.17 26.4475L84.9225 25.218L85.551 24.608C86.2842 23.8836 86.2842 22.7112 85.551 21.9964C84.8177 21.272 83.6179 21.272 82.8846 21.9964C82.1514 22.7208 82.1514 23.8931 82.8846 24.608L83.5131 25.218L82.2657 26.4475L81.6372 25.8375C80.9039 25.1131 79.7041 25.1131 78.9708 25.8375C78.2376 26.5619 78.2376 27.7342 78.9708 28.4491C79.3422 28.8112 79.8184 28.9923 80.304 28.9923C80.7897 28.9923 81.2658 28.8112 81.6372 28.4491L82.2657 27.8391L83.5131 29.0686L82.8846 29.6786C82.5323 30.0312 82.3323 30.4887 82.3323 30.9844C82.3323 31.48 82.5323 31.947 82.8846 32.2901C83.256 32.6523 83.7322 32.8334 84.2178 32.8334C84.7035 32.8334 85.1796 32.6523 85.551 32.2901C85.9224 31.928 86.1033 31.48 86.1033 30.9844C86.1033 30.4887 85.9033 30.0217 85.551 29.6786L84.9225 29.0686L86.17 27.8391L86.7985 28.4491C87.1698 28.8112 87.646 28.9923 88.1316 28.9923C88.6173 28.9923 89.0934 28.8112 89.4648 28.4491C90.1981 27.7247 90.1981 26.5523 89.4648 25.8375ZM83.5893 23.9122C83.2465 23.5691 83.2465 23.0258 83.5893 22.6827C83.7607 22.5111 83.9893 22.4253 84.2178 22.4253C84.4464 22.4253 84.6749 22.5111 84.8463 22.6827C85.1891 23.0258 85.1891 23.5691 84.8463 23.9122L84.2178 24.5222L83.5893 23.9122ZM80.923 27.7533C80.5802 28.0964 80.0183 28.0964 79.6755 27.7533C79.3327 27.4102 79.3327 26.8669 79.6755 26.5237C79.8469 26.3522 80.0755 26.2664 80.304 26.2664C80.5326 26.2664 80.7611 26.3522 80.9325 26.5237L81.561 27.1337L80.9325 27.7437L80.923 27.7533ZM84.8463 30.3648C85.0177 30.5269 85.1034 30.7461 85.1034 30.9748C85.1034 31.2036 85.0082 31.4228 84.8463 31.5848C84.5035 31.928 83.9417 31.928 83.5988 31.5848C83.4274 31.4228 83.3417 31.2036 83.3417 30.9748C83.3417 30.7461 83.437 30.5269 83.5988 30.3648L84.2273 29.7548L84.8558 30.3648H84.8463ZM84.2178 28.3633L82.9704 27.1337L84.2178 25.9042L85.4653 27.1337L84.2178 28.3633ZM88.7601 27.7533C88.4173 28.0964 87.8555 28.0964 87.5127 27.7533L86.8842 27.1433L87.5127 26.5333C87.6841 26.3712 87.9031 26.2759 88.1412 26.2759C88.3792 26.2759 88.5983 26.3617 88.7697 26.5333C89.1125 26.8764 89.1125 27.4197 88.7697 27.7628L88.7601 27.7533Z" fill="#FFB321"/>
<path d="M19.8173 48.6559C19.465 48.3032 18.9889 48.1126 18.4842 48.1126C17.9795 48.1126 17.5033 48.3032 17.151 48.6559L16.5225 49.2659L15.275 48.0363L15.9035 47.4263C16.6368 46.7019 16.6368 45.5296 15.9035 44.8148C15.1703 44.0904 13.9704 44.0904 13.2372 44.8148C12.5039 45.5391 12.5039 46.7115 13.2372 47.4263L13.8657 48.0363L12.6182 49.2659L11.9897 48.6559C11.2565 47.9315 10.0566 47.9315 9.32337 48.6559C8.59013 49.3802 8.59013 50.5526 9.32337 51.2674C9.69476 51.6296 10.1709 51.8107 10.6565 51.8107C11.1422 51.8107 11.6183 51.6296 11.9897 51.2674L12.6182 50.6574L13.8657 51.8869L13.2372 52.4969C12.8848 52.8496 12.6849 53.3071 12.6849 53.8027C12.6849 54.2983 12.8848 54.7654 13.2372 55.1085C13.6086 55.4707 14.0847 55.6518 14.5704 55.6518C15.056 55.6518 15.5321 55.4707 15.9035 55.1085C16.2559 54.7558 16.4558 54.2983 16.4558 53.8027C16.4558 53.3071 16.2559 52.8401 15.9035 52.4969L15.275 51.8869L16.5225 50.6574L17.151 51.2674C17.5224 51.6296 17.9985 51.8107 18.4842 51.8107C18.9698 51.8107 19.446 51.6296 19.8173 51.2674C20.5506 50.543 20.5506 49.3707 19.8173 48.6559ZM13.9419 46.7305C13.599 46.3874 13.599 45.8441 13.9419 45.501C14.1133 45.3295 14.3418 45.2437 14.5704 45.2437C14.7989 45.2437 15.0274 45.3295 15.1989 45.501C15.5417 45.8441 15.5417 46.3874 15.1989 46.7305L14.5704 47.3405L13.9419 46.7305ZM11.2755 50.5716C10.9327 50.9148 10.3709 50.9148 10.028 50.5716C9.68523 50.2285 9.68523 49.6852 10.028 49.3421C10.1995 49.1705 10.428 49.0848 10.6565 49.0848C10.8851 49.0848 11.1136 49.1705 11.285 49.3421L11.9135 49.9521L11.285 50.5621L11.2755 50.5716ZM15.1989 53.1832C15.3703 53.3452 15.456 53.5644 15.456 53.7932C15.456 54.0219 15.3607 54.2412 15.1989 54.4032C14.856 54.7463 14.2942 54.7463 13.9514 54.4032C13.78 54.2412 13.6943 54.0219 13.6943 53.7932C13.6943 53.5644 13.7895 53.3452 13.9514 53.1832L14.5799 52.5732L15.2084 53.1832H15.1989ZM14.5704 51.1816L13.3229 49.9521L14.5704 48.7226L15.8178 49.9521L14.5704 51.1816ZM19.1127 50.5716C18.7699 50.9148 18.208 50.9148 17.8652 50.5716L17.2367 49.9616L17.8652 49.3516C18.0366 49.1896 18.2556 49.0943 18.4937 49.0943C18.7318 49.0943 18.9508 49.1801 19.1222 49.3516C19.465 49.6948 19.465 50.238 19.1222 50.5812L19.1127 50.5716Z" fill="#FFB321"/>
<path d="M43.0341 48.6559C42.6818 48.3032 42.2057 48.1126 41.701 48.1126C41.1963 48.1126 40.7201 48.3032 40.3678 48.6559L39.7393 49.2659L38.4918 48.0363L39.1203 47.4263C39.8536 46.7019 39.8536 45.5296 39.1203 44.8148C38.3871 44.0904 37.1872 44.0904 36.454 44.8148C35.7207 45.5391 35.7207 46.7115 36.454 47.4263L37.0825 48.0363L35.835 49.2659L35.2065 48.6559C34.4733 47.9315 33.2734 47.9315 32.5402 48.6559C31.8069 49.3802 31.8069 50.5526 32.5402 51.2674C32.9116 51.6296 33.3877 51.8107 33.8733 51.8107C34.359 51.8107 34.8351 51.6296 35.2065 51.2674L35.835 50.6574L37.0825 51.8869L36.454 52.4969C36.1016 52.8496 35.9017 53.3071 35.9017 53.8027C35.9017 54.2983 36.1016 54.7654 36.454 55.1085C36.8254 55.4707 37.3015 55.6518 37.7872 55.6518C38.2728 55.6518 38.7489 55.4707 39.1203 55.1085C39.4727 54.7558 39.6726 54.2983 39.6726 53.8027C39.6726 53.3071 39.4727 52.8401 39.1203 52.4969L38.4918 51.8869L39.7393 50.6574L40.3678 51.2674C40.7392 51.6296 41.2153 51.8107 41.701 51.8107C42.1866 51.8107 42.6628 51.6296 43.0341 51.2674C43.7674 50.543 43.7674 49.3707 43.0341 48.6559ZM37.1587 46.7305C36.8158 46.3874 36.8158 45.8441 37.1587 45.501C37.3301 45.3295 37.5586 45.2437 37.7872 45.2437C38.0157 45.2437 38.2442 45.3295 38.4156 45.501C38.7585 45.8441 38.7585 46.3874 38.4156 46.7305L37.7872 47.3405L37.1587 46.7305ZM34.4923 50.5716C34.1495 50.9148 33.5877 50.9148 33.2448 50.5716C32.902 50.2285 32.902 49.6852 33.2448 49.3421C33.4163 49.1705 33.6448 49.0848 33.8733 49.0848C34.1019 49.0848 34.3304 49.1705 34.5018 49.3421L35.1303 49.9521L34.5018 50.5621L34.4923 50.5716ZM38.4156 53.1832C38.5871 53.3452 38.6728 53.5644 38.6728 53.7932C38.6728 54.0219 38.5775 54.2412 38.4156 54.4032C38.0728 54.7463 37.511 54.7463 37.1682 54.4032C36.9968 54.2412 36.9111 54.0219 36.9111 53.7932C36.9111 53.5644 37.0063 53.3452 37.1682 53.1832L37.7967 52.5732L38.4252 53.1832H38.4156ZM37.7872 51.1816L36.5397 49.9521L37.7872 48.7226L39.0346 49.9521L37.7872 51.1816ZM42.3295 50.5716C41.9866 50.9148 41.4248 50.9148 41.082 50.5716L40.4535 49.9616L41.082 49.3516C41.2534 49.1896 41.4724 49.0943 41.7105 49.0943C41.9486 49.0943 42.1676 49.1801 42.339 49.3516C42.6818 49.6948 42.6818 50.238 42.339 50.5812L42.3295 50.5716Z" fill="#FFB321"/>
<path d="M66.248 48.6559C65.8957 48.3032 65.4195 48.1126 64.9148 48.1126C64.4101 48.1126 63.934 48.3032 63.5817 48.6559L62.9532 49.2659L61.7057 48.0363L62.3342 47.4263C63.0674 46.7019 63.0674 45.5296 62.3342 44.8148C61.6009 44.0904 60.4011 44.0904 59.6679 44.8148C58.9346 45.5391 58.9346 46.7115 59.6679 47.4263L60.2963 48.0363L59.0489 49.2659L58.4204 48.6559C57.6871 47.9315 56.4873 47.9315 55.754 48.6559C55.0208 49.3802 55.0208 50.5526 55.754 51.2674C56.1254 51.6296 56.6016 51.8107 57.0872 51.8107C57.5729 51.8107 58.049 51.6296 58.4204 51.2674L59.0489 50.6574L60.2963 51.8869L59.6679 52.4969C59.3155 52.8496 59.1155 53.3071 59.1155 53.8027C59.1155 54.2983 59.3155 54.7654 59.6679 55.1085C60.0392 55.4707 60.5154 55.6518 61.001 55.6518C61.4867 55.6518 61.9628 55.4707 62.3342 55.1085C62.7056 54.7463 62.8865 54.2983 62.8865 53.8027C62.8865 53.3071 62.6865 52.8401 62.3342 52.4969L61.7057 51.8869L62.9532 50.6574L63.5817 51.2674C63.9531 51.6296 64.4292 51.8107 64.9148 51.8107C65.4005 51.8107 65.8766 51.6296 66.248 51.2674C66.9813 50.543 66.9813 49.3707 66.248 48.6559ZM60.3725 46.7305C60.0297 46.3874 60.0297 45.8441 60.3725 45.501C60.5439 45.3295 60.7725 45.2437 61.001 45.2437C61.2296 45.2437 61.4581 45.3295 61.6295 45.501C61.9723 45.8441 61.9723 46.3874 61.6295 46.7305L61.001 47.3405L60.3725 46.7305ZM57.7062 50.5716C57.3634 50.9148 56.8015 50.9148 56.4587 50.5716C56.1159 50.2285 56.1159 49.6852 56.4587 49.3421C56.6301 49.1705 56.8587 49.0848 57.0872 49.0848C57.3158 49.0848 57.5443 49.1705 57.7157 49.3421L58.3442 49.9521L57.7157 50.5621L57.7062 50.5716ZM61.6295 53.1832C61.8009 53.3452 61.8866 53.5644 61.8866 53.7932C61.8866 54.0219 61.7914 54.2412 61.6295 54.4032C61.2867 54.7463 60.7249 54.7463 60.382 54.4032C60.2106 54.2412 60.1249 54.0219 60.1249 53.7932C60.1249 53.5644 60.2202 53.3452 60.382 53.1832L61.0105 52.5732L61.639 53.1832H61.6295ZM61.001 51.1816L59.7536 49.9521L61.001 48.7226L62.2485 49.9521L61.001 51.1816ZM65.5433 50.5716C65.2005 50.9148 64.6387 50.9148 64.2959 50.5716L63.6674 49.9616L64.2959 49.3516C64.4673 49.1896 64.6863 49.0943 64.9244 49.0943C65.1624 49.0943 65.3814 49.1801 65.5529 49.3516C65.8957 49.6948 65.8957 50.238 65.5529 50.5812L65.5433 50.5716Z" fill="#FFB321"/>
<path d="M89.4648 48.6559C89.1125 48.3032 88.6363 48.1126 88.1316 48.1126C87.6269 48.1126 87.1508 48.3032 86.7985 48.6559L86.17 49.2659L84.9225 48.0363L85.551 47.4263C86.2842 46.7019 86.2842 45.5296 85.551 44.8148C84.8177 44.0904 83.6179 44.0904 82.8846 44.8148C82.1514 45.5391 82.1514 46.7115 82.8846 47.4263L83.5131 48.0363L82.2657 49.2659L81.6372 48.6559C80.9039 47.9315 79.7041 47.9315 78.9708 48.6559C78.2376 49.3802 78.2376 50.5526 78.9708 51.2674C79.3422 51.6296 79.8184 51.8107 80.304 51.8107C80.7897 51.8107 81.2658 51.6296 81.6372 51.2674L82.2657 50.6574L83.5131 51.8869L82.8846 52.4969C82.5323 52.8496 82.3323 53.3071 82.3323 53.8027C82.3323 54.2983 82.5323 54.7654 82.8846 55.1085C83.256 55.4707 83.7322 55.6518 84.2178 55.6518C84.7035 55.6518 85.1796 55.4707 85.551 55.1085C85.9033 54.7558 86.1033 54.2983 86.1033 53.8027C86.1033 53.3071 85.9033 52.8401 85.551 52.4969L84.9225 51.8869L86.17 50.6574L86.7985 51.2674C87.1698 51.6296 87.646 51.8107 88.1316 51.8107C88.6173 51.8107 89.0934 51.6296 89.4648 51.2674C90.1981 50.543 90.1981 49.3707 89.4648 48.6559ZM83.5893 46.7305C83.2465 46.3874 83.2465 45.8441 83.5893 45.501C83.7607 45.3295 83.9893 45.2437 84.2178 45.2437C84.4464 45.2437 84.6749 45.3295 84.8463 45.501C85.1891 45.8441 85.1891 46.3874 84.8463 46.7305L84.2178 47.3405L83.5893 46.7305ZM80.923 50.5716C80.5802 50.9148 80.0183 50.9148 79.6755 50.5716C79.3327 50.2285 79.3327 49.6852 79.6755 49.3421C79.8469 49.1705 80.0755 49.0848 80.304 49.0848C80.5326 49.0848 80.7611 49.1705 80.9325 49.3421L81.561 49.9521L80.9325 50.5621L80.923 50.5716ZM84.8463 53.1832C85.0177 53.3452 85.1034 53.5644 85.1034 53.7932C85.1034 54.0219 85.0082 54.2412 84.8463 54.4032C84.5035 54.7463 83.9417 54.7463 83.5988 54.4032C83.4274 54.2412 83.3417 54.0219 83.3417 53.7932C83.3417 53.5644 83.437 53.3452 83.5988 53.1832L84.2273 52.5732L84.8558 53.1832H84.8463ZM84.2178 51.1816L82.9704 49.9521L84.2178 48.7226L85.4653 49.9521L84.2178 51.1816ZM88.7601 50.5716C88.4173 50.9148 87.8555 50.9148 87.5127 50.5716L86.8842 49.9616L87.5127 49.3516C87.6841 49.1896 87.9031 49.0943 88.1412 49.0943C88.3792 49.0943 88.5983 49.1801 88.7697 49.3516C89.1125 49.6948 89.1125 50.238 88.7697 50.5812L88.7601 50.5716Z" fill="#FFB321"/>
<path d="M19.8173 71.4732C19.465 71.1206 18.9889 70.93 18.4842 70.93C17.9795 70.93 17.5033 71.1206 17.151 71.4732L16.5225 72.0832L15.275 70.8537L15.9035 70.2437C16.6368 69.5193 16.6368 68.347 15.9035 67.6321C15.1703 66.9078 13.9704 66.9078 13.2372 67.6321C12.5039 68.3565 12.5039 69.5289 13.2372 70.2437L13.8657 70.8537L12.6182 72.0832L11.9897 71.4732C11.2565 70.7489 10.0566 70.7489 9.32337 71.4732C8.59013 72.1976 8.59013 73.37 9.32337 74.0848C9.69476 74.447 10.1709 74.6281 10.6565 74.6281C11.1422 74.6281 11.6183 74.447 11.9897 74.0848L12.6182 73.4748L13.8657 74.7043L13.2372 75.3143C12.8848 75.667 12.6849 76.1245 12.6849 76.6201C12.6849 77.1157 12.8848 77.5828 13.2372 77.9259C13.6086 78.2881 14.0847 78.4692 14.5704 78.4692C15.056 78.4692 15.5321 78.2881 15.9035 77.9259C16.2749 77.5637 16.4558 77.1157 16.4558 76.6201C16.4558 76.1245 16.2559 75.6575 15.9035 75.3143L15.275 74.7043L16.5225 73.4748L17.151 74.0848C17.5224 74.447 17.9985 74.6281 18.4842 74.6281C18.9698 74.6281 19.446 74.447 19.8173 74.0848C20.5506 73.3604 20.5506 72.1881 19.8173 71.4732ZM13.9419 69.5479C13.599 69.2048 13.599 68.6615 13.9419 68.3184C14.1133 68.1468 14.3418 68.0611 14.5704 68.0611C14.7989 68.0611 15.0274 68.1468 15.1989 68.3184C15.5417 68.6615 15.5417 69.2048 15.1989 69.5479L14.5704 70.1579L13.9419 69.5479ZM11.2755 73.389C10.9327 73.7321 10.3709 73.7321 10.028 73.389C9.68523 73.0459 9.68523 72.5026 10.028 72.1595C10.1995 71.9879 10.428 71.9021 10.6565 71.9021C10.8851 71.9021 11.1136 71.9879 11.285 72.1595L11.9135 72.7695L11.285 73.3795L11.2755 73.389ZM15.1989 76.0006C15.3703 76.1626 15.456 76.3818 15.456 76.6106C15.456 76.8393 15.3607 77.0585 15.1989 77.2206C14.856 77.5637 14.2942 77.5637 13.9514 77.2206C13.78 77.0585 13.6943 76.8393 13.6943 76.6106C13.6943 76.3818 13.7895 76.1626 13.9514 76.0006L14.5799 75.3906L15.2084 76.0006H15.1989ZM14.5704 73.999L13.3229 72.7695L14.5704 71.54L15.8178 72.7695L14.5704 73.999ZM19.1127 73.389C18.7699 73.7321 18.208 73.7321 17.8652 73.389L17.2367 72.779L17.8652 72.169C18.0366 72.007 18.2556 71.9117 18.4937 71.9117C18.7318 71.9117 18.9508 71.9975 19.1222 72.169C19.465 72.5121 19.465 73.0554 19.1222 73.3986L19.1127 73.389Z" fill="#FFB321"/>
<path d="M43.0341 71.4732C42.6818 71.1206 42.2057 70.93 41.701 70.93C41.1963 70.93 40.7201 71.1206 40.3678 71.4732L39.7393 72.0832L38.4918 70.8537L39.1203 70.2437C39.8536 69.5193 39.8536 68.347 39.1203 67.6321C38.3871 66.9078 37.1872 66.9078 36.454 67.6321C35.7207 68.3565 35.7207 69.5289 36.454 70.2437L37.0825 70.8537L35.835 72.0832L35.2065 71.4732C34.4733 70.7489 33.2734 70.7489 32.5402 71.4732C31.8069 72.1976 31.8069 73.37 32.5402 74.0848C32.9116 74.447 33.3877 74.6281 33.8733 74.6281C34.359 74.6281 34.8351 74.447 35.2065 74.0848L35.835 73.4748L37.0825 74.7043L36.454 75.3143C36.1016 75.667 35.9017 76.1245 35.9017 76.6201C35.9017 77.1157 36.1016 77.5828 36.454 77.9259C36.8254 78.2881 37.3015 78.4692 37.7872 78.4692C38.2728 78.4692 38.7489 78.2881 39.1203 77.9259C39.4917 77.5637 39.6726 77.1157 39.6726 76.6201C39.6726 76.1245 39.4727 75.6575 39.1203 75.3143L38.4918 74.7043L39.7393 73.4748L40.3678 74.0848C40.7392 74.447 41.2153 74.6281 41.701 74.6281C42.1866 74.6281 42.6628 74.447 43.0341 74.0848C43.7674 73.3604 43.7674 72.1881 43.0341 71.4732ZM37.1587 69.5479C36.8158 69.2048 36.8158 68.6615 37.1587 68.3184C37.3301 68.1468 37.5586 68.0611 37.7872 68.0611C38.0157 68.0611 38.2442 68.1468 38.4156 68.3184C38.7585 68.6615 38.7585 69.2048 38.4156 69.5479L37.7872 70.1579L37.1587 69.5479ZM34.4923 73.389C34.1495 73.7321 33.5877 73.7321 33.2448 73.389C32.902 73.0459 32.902 72.5026 33.2448 72.1595C33.4163 71.9879 33.6448 71.9021 33.8733 71.9021C34.1019 71.9021 34.3304 71.9879 34.5018 72.1595L35.1303 72.7695L34.5018 73.3795L34.4923 73.389ZM38.4156 76.0006C38.5871 76.1626 38.6728 76.3818 38.6728 76.6106C38.6728 76.8393 38.5775 77.0585 38.4156 77.2206C38.0728 77.5637 37.511 77.5637 37.1682 77.2206C36.9968 77.0585 36.9111 76.8393 36.9111 76.6106C36.9111 76.3818 37.0063 76.1626 37.1682 76.0006L37.7967 75.3906L38.4252 76.0006H38.4156ZM37.7872 73.999L36.5397 72.7695L37.7872 71.54L39.0346 72.7695L37.7872 73.999ZM42.3295 73.389C41.9866 73.7321 41.4248 73.7321 41.082 73.389L40.4535 72.779L41.082 72.169C41.2534 72.007 41.4724 71.9117 41.7105 71.9117C41.9486 71.9117 42.1676 71.9975 42.339 72.169C42.6818 72.5121 42.6818 73.0554 42.339 73.3986L42.3295 73.389Z" fill="#FFB321"/>
<path d="M66.248 71.4732C65.8957 71.1206 65.4195 70.93 64.9148 70.93C64.4101 70.93 63.934 71.1206 63.5817 71.4732L62.9532 72.0832L61.7057 70.8537L62.3342 70.2437C63.0674 69.5193 63.0674 68.347 62.3342 67.6321C61.6009 66.9078 60.4011 66.9078 59.6679 67.6321C58.9346 68.3565 58.9346 69.5289 59.6679 70.2437L60.2963 70.8537L59.0489 72.0832L58.4204 71.4732C57.6871 70.7489 56.4873 70.7489 55.754 71.4732C55.0208 72.1976 55.0208 73.37 55.754 74.0848C56.1254 74.447 56.6016 74.6281 57.0872 74.6281C57.5729 74.6281 58.049 74.447 58.4204 74.0848L59.0489 73.4748L60.2963 74.7043L59.6679 75.3143C59.3155 75.667 59.1155 76.1245 59.1155 76.6201C59.1155 77.1157 59.3155 77.5828 59.6679 77.9259C60.0392 78.2881 60.5154 78.4692 61.001 78.4692C61.4867 78.4692 61.9628 78.2881 62.3342 77.9259C62.7056 77.5637 62.8865 77.1157 62.8865 76.6201C62.8865 76.1245 62.6865 75.6575 62.3342 75.3143L61.7057 74.7043L62.9532 73.4748L63.5817 74.0848C63.9531 74.447 64.4292 74.6281 64.9148 74.6281C65.4005 74.6281 65.8766 74.447 66.248 74.0848C66.9813 73.3604 66.9813 72.1881 66.248 71.4732ZM60.3725 69.5479C60.0297 69.2048 60.0297 68.6615 60.3725 68.3184C60.5439 68.1468 60.7725 68.0611 61.001 68.0611C61.2296 68.0611 61.4581 68.1468 61.6295 68.3184C61.9723 68.6615 61.9723 69.2048 61.6295 69.5479L61.001 70.1579L60.3725 69.5479ZM57.7062 73.389C57.3634 73.7321 56.8015 73.7321 56.4587 73.389C56.1159 73.0459 56.1159 72.5026 56.4587 72.1595C56.6301 71.9879 56.8587 71.9021 57.0872 71.9021C57.3158 71.9021 57.5443 71.9879 57.7157 72.1595L58.3442 72.7695L57.7157 73.3795L57.7062 73.389ZM61.6295 76.0006C61.8009 76.1626 61.8866 76.3818 61.8866 76.6106C61.8866 76.8393 61.7914 77.0585 61.6295 77.2206C61.2867 77.5637 60.7249 77.5637 60.382 77.2206C60.2106 77.0585 60.1249 76.8393 60.1249 76.6106C60.1249 76.3818 60.2202 76.1626 60.382 76.0006L61.0105 75.3906L61.639 76.0006H61.6295ZM61.001 73.999L59.7536 72.7695L61.001 71.54L62.2485 72.7695L61.001 73.999ZM65.5433 73.389C65.2005 73.7321 64.6387 73.7321 64.2959 73.389L63.6674 72.779L64.2959 72.169C64.4673 72.007 64.6863 71.9117 64.9244 71.9117C65.1624 71.9117 65.3814 71.9975 65.5529 72.169C65.8957 72.5121 65.8957 73.0554 65.5529 73.3986L65.5433 73.389Z" fill="#FFB321"/>
<path d="M89.4648 71.4732C89.1125 71.1206 88.6363 70.93 88.1316 70.93C87.6269 70.93 87.1508 71.1206 86.7985 71.4732L86.17 72.0832L84.9225 70.8537L85.551 70.2437C86.2842 69.5193 86.2842 68.347 85.551 67.6321C84.8177 66.9078 83.6179 66.9078 82.8846 67.6321C82.1514 68.3565 82.1514 69.5289 82.8846 70.2437L83.5131 70.8537L82.2657 72.0832L81.6372 71.4732C80.9039 70.7489 79.7041 70.7489 78.9708 71.4732C78.2376 72.1976 78.2376 73.37 78.9708 74.0848C79.3422 74.447 79.8184 74.6281 80.304 74.6281C80.7897 74.6281 81.2658 74.447 81.6372 74.0848L82.2657 73.4748L83.5131 74.7043L82.8846 75.3143C82.5323 75.667 82.3323 76.1245 82.3323 76.6201C82.3323 77.1157 82.5323 77.5828 82.8846 77.9259C83.256 78.2881 83.7322 78.4692 84.2178 78.4692C84.7035 78.4692 85.1796 78.2881 85.551 77.9259C85.9224 77.5637 86.1033 77.1157 86.1033 76.6201C86.1033 76.1245 85.9033 75.6575 85.551 75.3143L84.9225 74.7043L86.17 73.4748L86.7985 74.0848C87.1698 74.447 87.646 74.6281 88.1316 74.6281C88.6173 74.6281 89.0934 74.447 89.4648 74.0848C90.1981 73.3604 90.1981 72.1881 89.4648 71.4732ZM83.5893 69.5479C83.2465 69.2048 83.2465 68.6615 83.5893 68.3184C83.7607 68.1468 83.9893 68.0611 84.2178 68.0611C84.4464 68.0611 84.6749 68.1468 84.8463 68.3184C85.1891 68.6615 85.1891 69.2048 84.8463 69.5479L84.2178 70.1579L83.5893 69.5479ZM80.923 73.389C80.5802 73.7321 80.0183 73.7321 79.6755 73.389C79.3327 73.0459 79.3327 72.5026 79.6755 72.1595C79.8469 71.9879 80.0755 71.9021 80.304 71.9021C80.5326 71.9021 80.7611 71.9879 80.9325 72.1595L81.561 72.7695L80.9325 73.3795L80.923 73.389ZM84.8463 76.0006C85.0177 76.1626 85.1034 76.3818 85.1034 76.6106C85.1034 76.8393 85.0082 77.0585 84.8463 77.2206C84.5035 77.5637 83.9417 77.5637 83.5988 77.2206C83.4274 77.0585 83.3417 76.8393 83.3417 76.6106C83.3417 76.3818 83.437 76.1626 83.5988 76.0006L84.2273 75.3906L84.8558 76.0006H84.8463ZM84.2178 73.999L82.9704 72.7695L84.2178 71.54L85.4653 72.7695L84.2178 73.999ZM88.7601 73.389C88.4173 73.7321 87.8555 73.7321 87.5127 73.389L86.8842 72.779L87.5127 72.169C87.6841 72.007 87.9031 71.9117 88.1412 71.9117C88.3792 71.9117 88.5983 71.9975 88.7697 72.169C89.1125 72.5121 89.1125 73.0554 88.7697 73.3986L88.7601 73.389Z" fill="#FFB321"/>
<path d="M19.8173 94.2916C19.465 93.9389 18.9889 93.7483 18.4842 93.7483C17.9795 93.7483 17.5033 93.9389 17.151 94.2916L16.5225 94.9016L15.275 93.6721L15.9035 93.0621C16.6368 92.3377 16.6368 91.1654 15.9035 90.4505C15.1703 89.7261 13.9704 89.7261 13.2372 90.4505C12.5039 91.1749 12.5039 92.3472 13.2372 93.0621L13.8657 93.6721L12.6182 94.9016L11.9897 94.2916C11.2565 93.5672 10.0566 93.5672 9.32337 94.2916C8.59013 95.016 8.59013 96.1883 9.32337 96.9031C9.69476 97.2653 10.1709 97.4464 10.6565 97.4464C11.1422 97.4464 11.6183 97.2653 11.9897 96.9031L12.6182 96.2931L13.8657 97.5227L13.2372 98.1327C12.8848 98.4853 12.6849 98.9428 12.6849 99.4385C12.6849 99.9341 12.8848 100.401 13.2372 100.744C13.6086 101.106 14.0847 101.288 14.5704 101.288C15.056 101.288 15.5321 101.106 15.9035 100.744C16.2559 100.392 16.4558 99.9341 16.4558 99.4385C16.4558 98.9428 16.2559 98.4758 15.9035 98.1327L15.275 97.5227L16.5225 96.2931L17.151 96.9031C17.5224 97.2653 17.9985 97.4464 18.4842 97.4464C18.9698 97.4464 19.446 97.2653 19.8173 96.9031C20.5506 96.1788 20.5506 95.0064 19.8173 94.2916ZM13.9419 92.3663C13.599 92.0232 13.599 91.4799 13.9419 91.1367C14.1133 90.9652 14.3418 90.8794 14.5704 90.8794C14.7989 90.8794 15.0274 90.9652 15.1989 91.1367C15.5417 91.4799 15.5417 92.0232 15.1989 92.3663L14.5704 92.9763L13.9419 92.3663ZM11.2755 96.2074C10.9327 96.5505 10.3709 96.5505 10.028 96.2074C9.68523 95.8642 9.68523 95.321 10.028 94.9778C10.1995 94.8063 10.428 94.7205 10.6565 94.7205C10.8851 94.7205 11.1136 94.8063 11.285 94.9778L11.9135 95.5878L11.285 96.1978L11.2755 96.2074ZM15.1989 98.8189C15.3703 98.981 15.456 99.2002 15.456 99.4289C15.456 99.6577 15.3607 99.8769 15.1989 100.039C14.856 100.382 14.2942 100.382 13.9514 100.039C13.78 99.8769 13.6943 99.6577 13.6943 99.4289C13.6943 99.2002 13.7895 98.981 13.9514 98.8189L14.5799 98.2089L15.2084 98.8189H15.1989ZM14.5704 96.8174L13.3229 95.5878L14.5704 94.3583L15.8178 95.5878L14.5704 96.8174ZM19.1127 96.2074C18.7699 96.5505 18.208 96.5505 17.8652 96.2074L17.2367 95.5974L17.8652 94.9874C18.0366 94.8253 18.2556 94.73 18.4937 94.73C18.7318 94.73 18.9508 94.8158 19.1222 94.9874C19.465 95.3305 19.465 95.8738 19.1222 96.2169L19.1127 96.2074Z" fill="#FFB321"/>
<path d="M43.0341 94.2916C42.6818 93.9389 42.2057 93.7483 41.701 93.7483C41.1963 93.7483 40.7201 93.9389 40.3678 94.2916L39.7393 94.9016L38.4918 93.6721L39.1203 93.0621C39.8536 92.3377 39.8536 91.1654 39.1203 90.4505C38.3871 89.7261 37.1872 89.7261 36.454 90.4505C35.7207 91.1749 35.7207 92.3472 36.454 93.0621L37.0825 93.6721L35.835 94.9016L35.2065 94.2916C34.4733 93.5672 33.2734 93.5672 32.5402 94.2916C31.8069 95.016 31.8069 96.1883 32.5402 96.9031C32.9116 97.2653 33.3877 97.4464 33.8733 97.4464C34.359 97.4464 34.8351 97.2653 35.2065 96.9031L35.835 96.2931L37.0825 97.5227L36.454 98.1327C36.1016 98.4853 35.9017 98.9428 35.9017 99.4385C35.9017 99.9341 36.1016 100.401 36.454 100.744C36.8254 101.106 37.3015 101.288 37.7872 101.288C38.2728 101.288 38.7489 101.106 39.1203 100.744C39.4727 100.392 39.6726 99.9341 39.6726 99.4385C39.6726 98.9428 39.4727 98.4758 39.1203 98.1327L38.4918 97.5227L39.7393 96.2931L40.3678 96.9031C40.7392 97.2653 41.2153 97.4464 41.701 97.4464C42.1866 97.4464 42.6628 97.2653 43.0341 96.9031C43.7674 96.1788 43.7674 95.0064 43.0341 94.2916ZM37.1587 92.3663C36.8158 92.0232 36.8158 91.4799 37.1587 91.1367C37.3301 90.9652 37.5586 90.8794 37.7872 90.8794C38.0157 90.8794 38.2442 90.9652 38.4156 91.1367C38.7585 91.4799 38.7585 92.0232 38.4156 92.3663L37.7872 92.9763L37.1587 92.3663ZM34.4923 96.2074C34.1495 96.5505 33.5877 96.5505 33.2448 96.2074C32.902 95.8642 32.902 95.321 33.2448 94.9778C33.4163 94.8063 33.6448 94.7205 33.8733 94.7205C34.1019 94.7205 34.3304 94.8063 34.5018 94.9778L35.1303 95.5878L34.5018 96.1978L34.4923 96.2074ZM38.4156 98.8189C38.5871 98.981 38.6728 99.2002 38.6728 99.4289C38.6728 99.6577 38.5775 99.8769 38.4156 100.039C38.0728 100.382 37.511 100.382 37.1682 100.039C36.9968 99.8769 36.9111 99.6577 36.9111 99.4289C36.9111 99.2002 37.0063 98.981 37.1682 98.8189L37.7967 98.2089L38.4252 98.8189H38.4156ZM37.7872 96.8174L36.5397 95.5878L37.7872 94.3583L39.0346 95.5878L37.7872 96.8174ZM42.3295 96.2074C41.9866 96.5505 41.4248 96.5505 41.082 96.2074L40.4535 95.5974L41.082 94.9874C41.2534 94.8253 41.4724 94.73 41.7105 94.73C41.9486 94.73 42.1676 94.8158 42.339 94.9874C42.6818 95.3305 42.6818 95.8738 42.339 96.2169L42.3295 96.2074Z" fill="#FFB321"/>
<path d="M66.248 94.2916C65.8957 93.9389 65.4195 93.7483 64.9148 93.7483C64.4101 93.7483 63.934 93.9389 63.5817 94.2916L62.9532 94.9016L61.7057 93.6721L62.3342 93.0621C63.0674 92.3377 63.0674 91.1654 62.3342 90.4505C61.6009 89.7261 60.4011 89.7261 59.6679 90.4505C58.9346 91.1749 58.9346 92.3472 59.6679 93.0621L60.2963 93.6721L59.0489 94.9016L58.4204 94.2916C57.6871 93.5672 56.4873 93.5672 55.754 94.2916C55.0208 95.016 55.0208 96.1883 55.754 96.9031C56.1254 97.2653 56.6016 97.4464 57.0872 97.4464C57.5729 97.4464 58.049 97.2653 58.4204 96.9031L59.0489 96.2931L60.2963 97.5227L59.6679 98.1327C59.3155 98.4853 59.1155 98.9428 59.1155 99.4385C59.1155 99.9341 59.3155 100.401 59.6679 100.744C60.0392 101.106 60.5154 101.288 61.001 101.288C61.4867 101.288 61.9628 101.106 62.3342 100.744C62.7056 100.382 62.8865 99.9341 62.8865 99.4385C62.8865 98.9428 62.6865 98.4758 62.3342 98.1327L61.7057 97.5227L62.9532 96.2931L63.5817 96.9031C63.9531 97.2653 64.4292 97.4464 64.9148 97.4464C65.4005 97.4464 65.8766 97.2653 66.248 96.9031C66.9813 96.1788 66.9813 95.0064 66.248 94.2916ZM60.3725 92.3663C60.0297 92.0232 60.0297 91.4799 60.3725 91.1367C60.5439 90.9652 60.7725 90.8794 61.001 90.8794C61.2296 90.8794 61.4581 90.9652 61.6295 91.1367C61.9723 91.4799 61.9723 92.0232 61.6295 92.3663L61.001 92.9763L60.3725 92.3663ZM57.7062 96.2074C57.3634 96.5505 56.8015 96.5505 56.4587 96.2074C56.1159 95.8642 56.1159 95.321 56.4587 94.9778C56.6301 94.8063 56.8587 94.7205 57.0872 94.7205C57.3158 94.7205 57.5443 94.8063 57.7157 94.9778L58.3442 95.5878L57.7157 96.1978L57.7062 96.2074ZM61.6295 98.8189C61.8009 98.981 61.8866 99.2002 61.8866 99.4289C61.8866 99.6577 61.7914 99.8769 61.6295 100.039C61.2867 100.382 60.7249 100.382 60.382 100.039C60.2106 99.8769 60.1249 99.6577 60.1249 99.4289C60.1249 99.2002 60.2202 98.981 60.382 98.8189L61.0105 98.2089L61.639 98.8189H61.6295ZM61.001 96.8174L59.7536 95.5878L61.001 94.3583L62.2485 95.5878L61.001 96.8174ZM65.5433 96.2074C65.2005 96.5505 64.6387 96.5505 64.2959 96.2074L63.6674 95.5974L64.2959 94.9874C64.4673 94.8253 64.6863 94.73 64.9244 94.73C65.1624 94.73 65.3814 94.8158 65.5529 94.9874C65.8957 95.3305 65.8957 95.8738 65.5529 96.2169L65.5433 96.2074Z" fill="#FFB321"/>
<path d="M89.4648 94.2916C89.1125 93.9389 88.6363 93.7483 88.1316 93.7483C87.6269 93.7483 87.1508 93.9389 86.7985 94.2916L86.17 94.9016L84.9225 93.6721L85.551 93.0621C86.2842 92.3377 86.2842 91.1654 85.551 90.4505C84.8177 89.7261 83.6179 89.7261 82.8846 90.4505C82.1514 91.1749 82.1514 92.3472 82.8846 93.0621L83.5131 93.6721L82.2657 94.9016L81.6372 94.2916C80.9039 93.5672 79.7041 93.5672 78.9708 94.2916C78.2376 95.016 78.2376 96.1883 78.9708 96.9031C79.3422 97.2653 79.8184 97.4464 80.304 97.4464C80.7897 97.4464 81.2658 97.2653 81.6372 96.9031L82.2657 96.2931L83.5131 97.5227L82.8846 98.1327C82.5323 98.4853 82.3323 98.9428 82.3323 99.4385C82.3323 99.9341 82.5323 100.401 82.8846 100.744C83.256 101.106 83.7322 101.288 84.2178 101.288C84.7035 101.288 85.1796 101.106 85.551 100.744C85.9224 100.382 86.1033 99.9341 86.1033 99.4385C86.1033 98.9428 85.9033 98.4758 85.551 98.1327L84.9225 97.5227L86.17 96.2931L86.7985 96.9031C87.1698 97.2653 87.646 97.4464 88.1316 97.4464C88.6173 97.4464 89.0934 97.2653 89.4648 96.9031C90.1981 96.1788 90.1981 95.0064 89.4648 94.2916ZM83.5893 92.3663C83.2465 92.0232 83.2465 91.4799 83.5893 91.1367C83.7607 90.9652 83.9893 90.8794 84.2178 90.8794C84.4464 90.8794 84.6749 90.9652 84.8463 91.1367C85.1891 91.4799 85.1891 92.0232 84.8463 92.3663L84.2178 92.9763L83.5893 92.3663ZM80.923 96.2074C80.5802 96.5505 80.0183 96.5505 79.6755 96.2074C79.3327 95.8642 79.3327 95.321 79.6755 94.9778C79.8469 94.8063 80.0755 94.7205 80.304 94.7205C80.5326 94.7205 80.7611 94.8063 80.9325 94.9778L81.561 95.5878L80.9325 96.1978L80.923 96.2074ZM84.8463 98.8189C85.0177 98.981 85.1034 99.2002 85.1034 99.4289C85.1034 99.6577 85.0082 99.8769 84.8463 100.039C84.5035 100.382 83.9417 100.382 83.5988 100.039C83.4274 99.8769 83.3417 99.6577 83.3417 99.4289C83.3417 99.2002 83.437 98.981 83.5988 98.8189L84.2273 98.2089L84.8558 98.8189H84.8463ZM84.2178 96.8174L82.9704 95.5878L84.2178 94.3583L85.4653 95.5878L84.2178 96.8174ZM88.7601 96.2074C88.4173 96.5505 87.8555 96.5505 87.5127 96.2074L86.8842 95.5974L87.5127 94.9874C87.6841 94.8253 87.9031 94.73 88.1412 94.73C88.3792 94.73 88.5983 94.8158 88.7697 94.9874C89.1125 95.3305 89.1125 95.8738 88.7697 96.2169L88.7601 96.2074Z" fill="#FFB321"/>
</mask>
<g mask="url(#mask0_2278_33927)">
<circle cx="50" cy="50" r="50" fill="#149441"/>
</g>
<path fill-rule="evenodd" clip-rule="evenodd" d="M56.2014 40.0432L55.1236 39L53.0372 41.1556L54.115 42.1989L60.7966 48.666L34.5 48.666H33V51.666H34.5L60.9372 51.666L54.0862 58.6653L53.037 59.7373L55.1809 61.8358L56.2302 60.7638L65.5757 51.2158C65.855 50.9304 66.009 50.5455 66.0036 50.1463C65.9982 49.747 65.8338 49.3664 65.5469 49.0887L56.2014 40.0432Z" fill="white"/>
</g>
<defs>
<clipPath id="clip0_2278_33927">
<rect width="100" height="100" fill="white"/>
</clipPath>
</defs>
</svg>
