<svg width="27" height="19" viewBox="0 0 27 19" fill="none" xmlns="http://www.w3.org/2000/svg">
<path fill-rule="evenodd" clip-rule="evenodd" d="M12.4911 0.123383C12.9242 0.331533 13.1996 0.769505 13.1996 1.25001V16.8974C13.1996 17.3779 12.9242 17.8158 12.4911 18.024C12.058 18.2321 11.544 18.1736 11.1688 17.8734L5.92282 13.6767H1.89062C1.20027 13.6767 0.640625 13.117 0.640625 12.4267V5.72068C0.640625 5.03033 1.20027 4.47068 1.89062 4.47068H5.92282L11.1688 0.273926C11.544 -0.0262442 12.058 -0.0847673 12.4911 0.123383ZM10.6996 3.85079L7.14216 6.69677C6.92052 6.87408 6.64513 6.97068 6.3613 6.97068H3.14062V11.1767H6.3613C6.64513 11.1767 6.92052 11.2733 7.14216 11.4506L10.6996 14.2966V3.85079ZM26.2457 4.83756C26.7338 5.32572 26.7338 6.11718 26.2457 6.60533L23.7765 9.07445L26.2457 11.5436C26.7338 12.0317 26.7338 12.8232 26.2457 13.3113C25.7575 13.7995 24.966 13.7995 24.4779 13.3113L22.0088 10.8422L19.5396 13.3113C19.0515 13.7995 18.26 13.7995 17.7719 13.3113C17.2837 12.8232 17.2837 12.0317 17.7719 11.5436L20.241 9.07445L17.7719 6.60533C17.2837 6.11718 17.2837 5.32572 17.7719 4.83756C18.26 4.34941 19.0515 4.34941 19.5396 4.83756L22.0088 7.30668L24.4779 4.83756C24.966 4.34941 25.7575 4.34941 26.2457 4.83756Z" fill="#23196E"/>
</svg>
