<svg width="26" height="19" viewBox="0 0 26 19" fill="none" xmlns="http://www.w3.org/2000/svg">
<path fill-rule="evenodd" clip-rule="evenodd" d="M22.2518 0.36625C21.7637 -0.121979 20.9722 -0.122099 20.484 0.365983C19.9958 0.854065 19.9956 1.64552 20.4837 2.13375C22.4042 4.05482 23.4831 6.65999 23.4831 9.37638C23.4831 12.0928 22.4042 14.6979 20.4837 16.619C19.9956 17.1072 19.9958 17.8987 20.484 18.3868C20.9722 18.8749 21.7637 18.8747 22.2518 18.3865C24.6409 15.9966 25.9831 12.7557 25.9831 9.37638C25.9831 5.99708 24.6409 2.75613 22.2518 0.36625ZM18.1943 4.42369C17.7062 3.93546 16.9148 3.93534 16.4266 4.42342C15.9383 4.91151 15.9382 5.70296 16.4263 6.19119C17.2694 7.03452 17.743 8.17817 17.743 9.37063C17.743 10.5631 17.2694 11.7067 16.4263 12.5501C15.9382 13.0383 15.9383 13.8298 16.4266 14.3178C16.9148 14.8059 17.7062 14.8058 18.1943 14.3176C19.5061 13.0054 20.243 11.226 20.243 9.37063C20.243 7.51525 19.5061 5.73584 18.1943 4.42369ZM13.3448 1.33057C13.3448 0.85006 13.0693 0.412087 12.6362 0.203937C12.2032 -0.00421265 11.6891 0.0543103 11.3139 0.35448L5.90919 4.67823H1.75C1.05964 4.67823 0.5 5.23788 0.5 5.92823V12.8247C0.5 13.5151 1.05964 14.0747 1.75 14.0747H5.90919L11.3139 18.3985C11.6891 18.6987 12.2032 18.7572 12.6362 18.549C13.0693 18.3409 13.3448 17.9029 13.3448 17.4224V1.33057ZM7.12854 6.90432L10.8448 3.93135V14.8216L7.12854 11.8486C6.90689 11.6713 6.63151 11.5747 6.34767 11.5747H3V7.17823H6.34767C6.63151 7.17823 6.90689 7.08163 7.12854 6.90432Z" fill="#23196E"/>
</svg>
