<svg width="203" height="41" viewBox="0 0 203 41" fill="none" xmlns="http://www.w3.org/2000/svg">
<path d="M42.6094 0.0102717C35.0715 0.0102717 28.8484 5.92742 28.9465 13.1927C29.0498 20.7953 34.9084 26.5034 42.7738 26.538C49.9379 26.5701 56.1663 20.7953 56.3041 13.8174C56.4685 5.45025 49.9485 0.180872 42.6094 0.0102717ZM42.673 17.3859C40.2342 17.3756 38.4183 15.6055 38.3865 13.2479C38.356 10.9954 40.2858 9.16114 42.6227 9.16114C44.8985 9.21373 46.9198 10.8479 46.8681 13.4415C46.8257 15.6055 44.8945 17.3962 42.673 17.3859Z" fill="white"/>
<path d="M26.6958 1.07239V25.476H17.6455V11.8113L13.5313 14.1766L9.417 11.8113V25.476H0.366699V1.07239H7.43145L13.5313 4.58061L19.6311 1.07239H26.6958Z" fill="white"/>
<path d="M175.052 1.07239H166.001V25.476H175.052V1.07239Z" fill="white"/>
<path d="M200.725 16.6662L197.346 1.07101H182.413L177.126 25.4746H186.178L186.924 22.0305C188.856 22.4615 190.886 22.4718 192.837 22.0382L193.582 25.4759H202.633L200.725 16.6675V16.6662ZM189.872 17.7848C189.18 17.7848 188.514 17.7463 187.87 17.6655L189.881 8.38247L191.89 17.6629C191.241 17.7424 190.568 17.7835 189.872 17.7835V17.7848Z" fill="white"/>
<path d="M82.7817 1.07239V25.476H73.7314V14.1625L73.7075 14.1766L67.6077 10.6696V25.476H58.5574V1.07239H67.6077L73.7075 4.58061L73.7314 4.56522V1.07239H82.7817Z" fill="white"/>
<path d="M128.028 26.5367C135.566 26.5367 141.789 20.6209 141.691 13.3556C141.587 5.75296 135.73 0.0448949 127.864 0.0102617C120.699 -0.0218061 114.471 5.75296 114.334 12.7296C114.17 21.0955 120.69 26.3661 128.029 26.5367H128.028ZM127.966 9.16113C130.404 9.17139 132.22 10.9415 132.254 13.2992C132.284 15.5516 130.355 17.3846 128.016 17.3872C125.741 17.3333 123.719 15.6991 123.772 13.1055C123.814 10.9428 125.745 9.15087 127.966 9.16113Z" fill="#FFD900"/>
<path d="M112.411 13.8174C112.399 14.3946 112.346 14.9641 112.253 15.5208C112.25 15.5465 112.244 15.5747 112.24 15.6003C111.581 19.4498 109.079 22.7758 105.695 24.7204C105.002 25.1206 104.272 25.4606 103.511 25.7363C102.64 26.0519 101.729 26.2828 100.795 26.4149C100.163 26.5047 99.521 26.5496 98.8702 26.547C90.9969 26.5124 85.1357 20.8005 85.0323 13.1914C84.9939 10.3733 85.9071 7.75656 87.4791 5.61058C88.8735 3.70576 90.7862 2.17035 93.0143 1.19164C94.7507 0.427143 96.6819 0 98.7059 0C102.961 0.100052 106.938 1.91124 109.502 5.04362L100.978 9.79222C100.312 9.39843 99.5316 9.1778 98.7178 9.15728C96.3783 9.15728 94.4471 10.9928 94.4776 13.2479C94.5028 15.095 95.6242 16.5816 97.2823 17.146C97.6733 17.2794 98.0948 17.3602 98.5389 17.382C98.6157 17.3859 98.6913 17.3897 98.7695 17.3897C99.244 17.3923 99.7053 17.3128 100.136 17.164C100.601 17.0049 101.035 16.765 101.414 16.4636C101.753 16.1955 102.051 15.8761 102.293 15.5221C102.476 15.254 102.625 14.9641 102.735 14.6601C102.746 14.6332 102.757 14.6037 102.766 14.5755C99.3169 13.6968 98.1134 15.5221 98.1134 15.5221C98.1174 14.8153 98.2857 14.1457 98.5839 13.548C98.6051 13.5044 98.6277 13.4608 98.6529 13.4172C98.6555 13.4082 98.6608 13.4018 98.6661 13.3928C98.8875 12.9823 99.1724 12.6103 99.5078 12.2871C100.234 11.5842 101.057 11.1391 102.271 10.998C102.282 10.998 102.293 10.9967 102.303 10.9954C102.521 10.971 102.751 10.9569 102.995 10.9518C103.269 10.9454 103.552 10.9633 103.842 10.9954C105.278 11.1506 106.938 11.6701 109.022 11.6996C110.343 11.7176 111.578 11.4084 112.235 11.2083C112.255 11.3263 112.272 11.4444 112.287 11.5636C112.383 12.2871 112.426 13.0388 112.411 13.8187V13.8174Z" fill="#FFD900"/>
<path d="M152.971 18.0106V1.07239H143.943V25.476H163.751V18.0106H152.971Z" fill="white"/>
<path d="M43.2788 40.6543L45.3783 34.9744C45.4048 34.9064 45.4658 34.8731 45.536 34.8731H46.1749C46.2452 34.8731 46.3154 34.9064 46.3406 34.9744L48.4401 40.6543C48.4746 40.7389 48.4309 40.7979 48.3354 40.7979H47.7403C47.67 40.7979 47.6263 40.7723 47.5998 40.6966L47.1968 39.5627H44.5207L44.1178 40.6966C44.0913 40.7723 44.0475 40.7979 43.9693 40.7979H43.3742C43.2774 40.7979 43.243 40.7389 43.2774 40.6543H43.2788ZM46.9437 38.8597L45.8595 35.8377L44.7752 38.8597H46.945H46.9437Z" fill="white"/>
<path d="M52.2389 40.6799V34.9911C52.2389 34.9154 52.292 34.8731 52.3702 34.8731H52.9388C53.017 34.8731 53.0607 34.9154 53.0607 34.9911V40.0873H55.1868C55.265 40.0873 55.318 40.1386 55.318 40.2143V40.6709C55.318 40.7466 55.265 40.7979 55.1868 40.7979H52.3702C52.292 40.7979 52.2389 40.7556 52.2389 40.6799Z" fill="white"/>
<path d="M60.1255 40.6966L58.3242 35.0167C58.2977 34.9321 58.3334 34.8731 58.4289 34.8731H59.0068C59.077 34.8731 59.138 34.8987 59.1552 34.9744L60.6159 39.732L62.1985 34.9744C62.225 34.8987 62.2688 34.8731 62.347 34.8731H62.9421C63.0123 34.8731 63.0561 34.8987 63.0826 34.9744L64.6652 39.732L66.1259 34.9744C66.1524 34.8987 66.2041 34.8731 66.2743 34.8731H66.8522C66.949 34.8731 66.9835 34.9321 66.9569 35.0167L65.1636 40.6966C65.1371 40.7723 65.0761 40.7979 65.0059 40.7979H64.3763C64.2981 40.7979 64.245 40.7723 64.2185 40.6966L62.6439 35.8633L61.0613 40.6966C61.0347 40.7723 60.9831 40.7979 60.9128 40.7979H60.2739C60.2037 40.7979 60.1427 40.7723 60.1255 40.6966Z" fill="white"/>
<path d="M69.1453 40.6543L71.2448 34.9744C71.2713 34.9064 71.3323 34.8731 71.4026 34.8731H72.0414C72.1117 34.8731 72.1819 34.9064 72.2071 34.9744L74.3067 40.6543C74.3411 40.7389 74.2974 40.7979 74.202 40.7979H73.6068C73.5366 40.7979 73.4928 40.7723 73.4663 40.6966L73.0634 39.5627H70.3873L69.9843 40.6966C69.9578 40.7723 69.9141 40.7979 69.8359 40.7979H69.2407C69.144 40.7979 69.1095 40.7389 69.144 40.6543H69.1453ZM72.8102 38.8597L71.726 35.8377L70.6417 38.8597H72.8115H72.8102Z" fill="white"/>
<path d="M78.8954 40.6799V37.9798L77.0849 35.0257C77.0318 34.9411 77.0676 34.8731 77.1723 34.8731H77.7847C77.855 34.8731 77.8987 34.8987 77.9332 34.9577L79.3063 37.2435L80.6716 34.9577C80.706 34.8987 80.7591 34.8731 80.8293 34.8731H81.4417C81.5464 34.8731 81.5729 34.9411 81.5199 35.0257L79.7093 37.9888V40.6812C79.7093 40.7569 79.6655 40.7992 79.5873 40.7992H79.0187C78.9405 40.7992 78.8968 40.7569 78.8968 40.6812L78.8954 40.6799Z" fill="white"/>
<path d="M84.8123 40.0103C84.7686 39.9424 84.7686 39.8923 84.8296 39.8243L85.1185 39.5024C85.1795 39.4344 85.259 39.4511 85.32 39.5114C85.6527 39.909 86.0543 40.172 86.6667 40.172C87.3838 40.172 87.8132 39.8166 87.8132 39.2497C87.8132 38.6827 87.3758 38.4364 86.8072 38.1748L86.0636 37.8272C85.4167 37.5398 84.9436 37.0909 84.9436 36.3379C84.9436 35.381 85.7216 34.8064 86.6932 34.8064C87.4023 34.8064 87.9524 35.0937 88.3633 35.5683C88.4415 35.644 88.4242 35.6953 88.3726 35.7633L88.0929 36.0763C88.0319 36.1519 87.9617 36.1519 87.8914 36.0852C87.5415 35.7299 87.1916 35.535 86.7197 35.535C86.1603 35.535 85.7402 35.8146 85.7402 36.3302C85.7402 36.7446 85.9933 36.9819 86.5182 37.2281L87.2088 37.5501C87.9179 37.8797 88.6085 38.2864 88.6085 39.251C88.6085 40.3092 87.7602 40.9018 86.6759 40.9018C85.7667 40.9018 85.1543 40.4875 84.8123 40.0129V40.0103Z" fill="white"/>
<path d="M111.804 40.6799V34.9911C111.804 34.9154 111.857 34.8731 111.935 34.8731H112.662C112.732 34.8731 112.776 34.8987 112.802 34.9577L114.928 39.9103L117.054 34.9577C117.081 34.8987 117.133 34.8731 117.203 34.8731H117.929C118.007 34.8731 118.051 34.9154 118.051 34.9911V40.6799C118.051 40.7556 118.007 40.7979 117.929 40.7979H117.361C117.282 40.7979 117.229 40.7556 117.229 40.6799V36.2699L115.358 40.7056C115.331 40.7735 115.28 40.7992 115.209 40.7992H114.65C114.58 40.7992 114.528 40.7735 114.502 40.7056L112.63 36.2699V40.6799C112.63 40.7556 112.586 40.7979 112.508 40.7979H111.939C111.861 40.7979 111.808 40.7556 111.808 40.6799H111.804Z" fill="white"/>
<path d="M121.345 37.8605C121.345 36.1417 122.727 34.8051 124.485 34.8051C126.243 34.8051 127.617 36.143 127.617 37.8605C127.617 39.5781 126.235 40.9082 124.485 40.9082C122.735 40.9082 121.345 39.5704 121.345 37.8605ZM124.485 40.1373C125.797 40.1373 126.794 39.1548 126.794 37.8605C126.794 36.5663 125.797 35.5747 124.485 35.5747C123.173 35.5747 122.176 36.5573 122.176 37.8605C122.176 39.1637 123.173 40.1373 124.485 40.1373Z" fill="white"/>
<path d="M132.426 40.6966L130.326 35.0167C130.292 34.9321 130.326 34.8731 130.423 34.8731H131.018C131.096 34.8731 131.14 34.8987 131.167 34.9744L132.907 39.8333L134.647 34.9744C134.674 34.8987 134.718 34.8731 134.788 34.8731H135.383C135.48 34.8731 135.523 34.9321 135.488 35.0167L133.388 40.6966C133.362 40.7646 133.291 40.7979 133.222 40.7979H132.584C132.513 40.7979 132.452 40.7646 132.426 40.6966Z" fill="white"/>
<path d="M139.774 40.6799V34.9911C139.774 34.9154 139.827 34.8731 139.905 34.8731H140.474C140.552 34.8731 140.596 34.9154 140.596 34.9911V40.6799C140.596 40.7556 140.552 40.7979 140.474 40.7979H139.905C139.827 40.7979 139.774 40.7556 139.774 40.6799Z" fill="white"/>
<path d="M149.145 40.7133L146.477 36.066V40.6799C146.477 40.7556 146.433 40.7979 146.355 40.7979H145.787C145.708 40.7979 145.655 40.7556 145.655 40.6799V34.9911C145.655 34.9154 145.708 34.8731 145.787 34.8731H146.504C146.574 34.8731 146.626 34.8987 146.661 34.9577L149.338 39.6217V34.9911C149.338 34.9154 149.391 34.8731 149.469 34.8731H150.037C150.116 34.8731 150.159 34.9154 150.159 34.9911V40.6799C150.159 40.7556 150.116 40.7979 150.037 40.7979H149.303C149.233 40.7979 149.181 40.7723 149.145 40.7133Z" fill="white"/>
<path d="M153.852 37.8605C153.852 36.1417 155.199 34.8051 156.992 34.8051C157.832 34.8051 158.523 35.0924 159.074 35.6093C159.145 35.6684 159.145 35.7197 159.092 35.7787L158.732 36.1596C158.679 36.2186 158.628 36.2186 158.575 36.1686C158.128 35.7966 157.603 35.576 156.991 35.576C155.679 35.576 154.682 36.5496 154.682 37.8618C154.682 39.174 155.679 40.1386 157.017 40.1386C158.225 40.1386 159.02 39.3767 159.02 38.3531H157.078C157 38.3531 156.956 38.3107 156.956 38.2351V37.7605C156.956 37.6848 157 37.6424 157.078 37.6424H159.693C159.772 37.6424 159.825 37.6938 159.825 37.7694V38.1171C159.825 39.6832 158.748 40.9108 156.999 40.9108C155.249 40.9108 153.849 39.5819 153.849 37.8631L153.852 37.8605Z" fill="white"/>
<path d="M31.7803 38.9277C32.1463 38.9277 32.4431 38.6406 32.4431 38.2864C32.4431 37.9322 32.1463 37.645 31.7803 37.645C31.4143 37.645 31.1176 37.9322 31.1176 38.2864C31.1176 38.6406 31.4143 38.9277 31.7803 38.9277Z" fill="white"/>
<path d="M100.175 38.9277C100.541 38.9277 100.837 38.6406 100.837 38.2864C100.837 37.9322 100.541 37.645 100.175 37.645C99.8085 37.645 99.5118 37.9322 99.5118 38.2864C99.5118 38.6406 99.8085 38.9277 100.175 38.9277Z" fill="white"/>
<path d="M171.352 38.9277C171.718 38.9277 172.015 38.6406 172.015 38.2864C172.015 37.9322 171.718 37.645 171.352 37.645C170.986 37.645 170.689 37.9322 170.689 38.2864C170.689 38.6406 170.986 38.9277 171.352 38.9277Z" fill="white"/>
</svg>
