<svg width="148" height="20" viewBox="0 0 148 20" fill="none" xmlns="http://www.w3.org/2000/svg">
<path d="M30.9093 0.00773093C25.3937 0.00773093 20.8403 4.46558 20.912 9.93908C20.9877 15.6667 25.2744 19.9671 31.0296 19.9932C36.2716 20.0173 40.829 15.6667 40.9299 10.4097C41.0501 4.10609 36.2794 0.136258 30.9093 0.00773093ZM30.9549 13.0981C29.1704 13.0904 27.8417 11.7568 27.8184 9.98063C27.7961 8.28369 29.2082 6.90179 30.918 6.90179C32.5833 6.94141 34.0623 8.17256 34.0245 10.1266C33.9935 11.7568 32.5804 13.1059 30.9549 13.0981Z" fill="white"/>
<path d="M19.2652 0.807882V19.193H12.643V8.8983L9.63261 10.6803L6.62218 8.8983V19.193H0V0.807882H5.16933L9.63261 3.45089L14.0959 0.807882H19.2652Z" fill="white"/>
<path d="M127.818 0.807882H121.196V19.193H127.818V0.807882Z" fill="white"/>
<path d="M146.603 12.556L144.131 0.806916H133.205L129.336 19.192H135.959L136.505 16.5973C137.919 16.922 139.404 16.9298 140.832 16.6031L141.377 19.193H148L146.603 12.557V12.556ZM138.662 13.3977C138.156 13.3977 137.669 13.3687 137.198 13.3078L138.669 6.31424L140.139 13.3059C139.664 13.3658 139.171 13.3967 138.662 13.3967V13.3977Z" fill="white"/>
<path d="M60.3037 0.807882V19.193H53.6815V10.6697L53.6641 10.6803L49.2008 8.03824V19.193H42.5786V0.807882H49.2008L53.6641 3.45089L53.6815 3.4393V0.807882H60.3037Z" fill="white"/>
<path d="M93.4107 19.9922C98.9263 19.9922 103.48 15.5353 103.408 10.0618C103.332 4.33415 99.0465 0.0338228 93.2904 0.00773093C88.0484 -0.0164282 83.491 4.33415 83.3911 9.59022C83.2709 15.8929 88.0416 19.8637 93.4117 19.9922H93.4107ZM93.3651 6.90179C95.1497 6.90952 96.4784 8.24311 96.5026 10.0193C96.5249 11.7162 95.1138 13.0972 93.402 13.0991C91.7377 13.0585 90.2577 11.8274 90.2965 9.87337C90.3275 8.24407 91.7406 6.89406 93.3651 6.90179Z" fill="#FFD900"/>
<path d="M81.9839 10.4097C81.9751 10.8446 81.9363 11.2736 81.8684 11.693C81.8655 11.7124 81.8617 11.7336 81.8587 11.7529C81.3767 14.653 79.5456 17.1588 77.0696 18.6238C76.5624 18.9253 76.028 19.1814 75.4713 19.3892C74.8341 19.6269 74.1678 19.8008 73.484 19.9004C73.0214 19.968 72.552 20.0019 72.0758 19.9999C66.3149 19.9738 62.0262 15.6706 61.9505 9.93811C61.9224 7.81501 62.5906 5.84362 63.7409 4.22689C64.7612 2.79183 66.1607 1.63509 67.791 0.897754C69.0615 0.3218 70.4746 0 71.9555 0C75.0688 0.0753766 77.9793 1.43989 79.855 3.79975L73.6179 7.37724C73.131 7.08057 72.5598 6.91435 71.9643 6.89889C70.2525 6.89889 68.8394 8.28176 68.8617 9.98063C68.8801 11.3722 69.7006 12.4922 70.9139 12.9174C71.2 13.0179 71.5084 13.0788 71.8333 13.0952C71.8896 13.0981 71.9449 13.101 72.0021 13.101C72.3493 13.103 72.6868 13.043 73.002 12.931C73.3424 12.8111 73.6596 12.6304 73.937 12.4033C74.1852 12.2013 74.4035 11.9607 74.58 11.694C74.7138 11.492 74.8234 11.2736 74.9039 11.0446C74.9117 11.0243 74.9194 11.0021 74.9262 10.9808C72.4026 10.3189 71.522 11.694 71.522 11.694C71.5249 11.1615 71.6481 10.6571 71.8663 10.2068C71.8818 10.1739 71.8983 10.1411 71.9168 10.1082C71.9187 10.1014 71.9226 10.0966 71.9265 10.0898C72.0884 9.7806 72.2969 9.50035 72.5423 9.25683C73.0738 8.72726 73.6761 8.39193 74.5645 8.28563C74.5722 8.28563 74.58 8.28466 74.5877 8.28369C74.7468 8.26533 74.9156 8.2547 75.094 8.25084C75.2948 8.24601 75.5013 8.25953 75.7137 8.28369C76.7641 8.40062 77.9793 8.792 79.5039 8.81423C80.4709 8.82776 81.3738 8.59486 81.8549 8.44411C81.8694 8.53302 81.882 8.62192 81.8927 8.71179C81.9635 9.25683 81.9945 9.82312 81.9839 10.4107V10.4097Z" fill="#FFD900"/>
<path d="M111.661 13.5688V0.807882H105.056V19.193H119.549V13.5688H111.661Z" fill="white"/>
</svg>
