<svg width="203" height="28" viewBox="0 0 203 28" fill="none" xmlns="http://www.w3.org/2000/svg">
<path d="M42.6095 0.0104998C35.0716 0.0104998 28.8485 6.06493 28.9466 13.4988C29.0499 21.2778 34.9085 27.1183 42.7739 27.1537C49.9381 27.1865 56.1665 21.2778 56.3043 14.1379C56.4687 5.57669 49.9487 0.185058 42.6095 0.0104998ZM42.6718 17.7892C40.233 17.7787 38.4171 15.9675 38.3853 13.5552C38.3548 11.2505 40.2847 9.37367 42.6215 9.37367C44.8973 9.42748 46.9187 11.0996 46.867 13.7534C46.8246 15.9675 44.8933 17.7997 42.6718 17.7892Z" fill="white"/>
<path d="M26.6959 1.09723V26.067H17.6456V12.0852L13.5313 14.5054L9.41703 12.0852V26.067H0.366699V1.09723H7.43147L13.5313 4.68683L19.6311 1.09723H26.6959Z" fill="white"/>
<path d="M175.052 1.09723H166.002V26.067H175.052V1.09723Z" fill="white"/>
<path d="M200.725 17.0529L197.347 1.09591H182.414L177.127 26.0657H186.178L186.924 22.5417C188.857 22.9827 190.886 22.9932 192.837 22.5496L193.582 26.067H202.634L200.725 17.0542V17.0529ZM189.872 18.1961C189.18 18.1961 188.515 18.1567 187.871 18.074L189.882 8.57569L191.891 18.0714C191.242 18.1528 190.568 18.1948 189.872 18.1948V18.1961Z" fill="white"/>
<path d="M82.782 1.09723V26.067H73.7317V14.491L73.7078 14.5054L67.608 10.9171V26.067H58.5576V1.09723H67.608L73.7078 4.68683L73.7317 4.67108V1.09723H82.782Z" fill="white"/>
<path d="M128.028 27.1524C135.566 27.1524 141.789 21.0993 141.691 13.6654C141.588 5.88643 135.731 0.0459365 127.864 0.0104998C120.7 -0.022312 114.471 5.88643 114.335 13.025C114.171 21.5849 120.691 26.9778 128.03 27.1524H128.028ZM127.966 9.37367C130.405 9.38417 132.221 11.1954 132.254 13.6077C132.284 15.9124 130.356 17.7879 128.016 17.7905C125.742 17.7354 123.719 16.0633 123.772 13.4095C123.815 11.1967 125.746 9.36317 127.966 9.37367Z" fill="#FFD900"/>
<path d="M112.412 14.1379C112.4 14.7285 112.347 15.3113 112.254 15.8809C112.25 15.9071 112.245 15.936 112.241 15.9623C111.582 19.901 109.079 23.3042 105.695 25.2939C105.002 25.7034 104.272 26.0512 103.511 26.3334C102.64 26.6563 101.73 26.8925 100.795 27.0277C100.163 27.1196 99.5214 27.1655 98.8706 27.1629C90.9973 27.1275 85.136 21.283 85.0327 13.4975C84.9942 10.614 85.9075 7.93651 87.4795 5.74075C88.8739 3.79173 90.7865 2.2207 93.0147 1.21929C94.751 0.437053 96.6822 0 98.7062 0C102.961 0.102373 106.939 1.95558 109.502 5.16064L100.978 10.0194C100.313 9.61648 99.532 9.39073 98.7182 9.36973C96.3787 9.36973 94.4475 11.2479 94.478 13.5552C94.5032 15.4452 95.6245 16.9663 97.2827 17.5438C97.6737 17.6803 98.0952 17.763 98.5392 17.7853C98.6161 17.7892 98.6917 17.7932 98.7699 17.7932C99.2444 17.7958 99.7057 17.7144 100.136 17.5622C100.602 17.3994 101.035 17.154 101.414 16.8456C101.754 16.5713 102.052 16.2445 102.293 15.8822C102.476 15.6079 102.626 15.3113 102.736 15.0002C102.746 14.9727 102.757 14.9425 102.766 14.9136C99.3173 14.0146 98.1138 15.8822 98.1138 15.8822C98.1177 15.159 98.2861 14.4739 98.5843 13.8623C98.6055 13.8177 98.628 13.7731 98.6532 13.7284C98.6559 13.7193 98.6612 13.7127 98.6665 13.7035C98.8878 13.2835 99.1728 12.9029 99.5081 12.5722C100.235 11.8529 101.058 11.3975 102.272 11.2531C102.282 11.2531 102.293 11.2518 102.304 11.2505C102.521 11.2256 102.752 11.2111 102.995 11.2059C103.27 11.1993 103.552 11.2177 103.842 11.2505C105.278 11.4093 106.939 11.9409 109.022 11.971C110.344 11.9894 111.578 11.6731 112.235 11.4684C112.255 11.5891 112.272 11.7099 112.287 11.8319C112.384 12.5722 112.426 13.3413 112.412 14.1393V14.1379Z" fill="#FFD900"/>
<path d="M152.971 18.4284V1.09723H143.943V26.067H163.751V18.4284H152.971Z" fill="white"/>
</svg>
